<mxfile host="app.diagrams.net" agent="Mozilla/5.0 (Windows NT 10.0; Win64; x64) AppleWebKit/537.36 (KHTML, like Gecko) Chrome/131.0.0.0 Safari/537.36" version="25.0.3">
  <diagram name="Trang-1" id="LsU3ng23SqDBzvLvnEQI">
    <mxGraphModel dx="875" dy="474" grid="1" gridSize="10" guides="1" tooltips="1" connect="1" arrows="1" fold="1" page="1" pageScale="1" pageWidth="827" pageHeight="1169" math="0" shadow="0">
      <root>
        <mxCell id="0" />
        <mxCell id="1" parent="0" />
        <mxCell id="3CAVAxjYpTLYCpoozpfG-28" value="" style="group" vertex="1" connectable="0" parent="1">
          <mxGeometry x="80" y="80" width="560" height="440" as="geometry" />
        </mxCell>
        <mxCell id="3CAVAxjYpTLYCpoozpfG-25" style="edgeStyle=orthogonalEdgeStyle;rounded=0;orthogonalLoop=1;jettySize=auto;html=1;exitX=0.5;exitY=1;exitDx=0;exitDy=0;entryX=0.5;entryY=0;entryDx=0;entryDy=0;endArrow=none;endFill=0;" edge="1" parent="3CAVAxjYpTLYCpoozpfG-28" source="3CAVAxjYpTLYCpoozpfG-1" target="3CAVAxjYpTLYCpoozpfG-3">
          <mxGeometry relative="1" as="geometry" />
        </mxCell>
        <mxCell id="3CAVAxjYpTLYCpoozpfG-26" style="edgeStyle=orthogonalEdgeStyle;rounded=0;orthogonalLoop=1;jettySize=auto;html=1;exitX=0.5;exitY=1;exitDx=0;exitDy=0;entryX=0.5;entryY=0;entryDx=0;entryDy=0;endArrow=none;endFill=0;" edge="1" parent="3CAVAxjYpTLYCpoozpfG-28" source="3CAVAxjYpTLYCpoozpfG-1" target="3CAVAxjYpTLYCpoozpfG-2">
          <mxGeometry relative="1" as="geometry" />
        </mxCell>
        <mxCell id="3CAVAxjYpTLYCpoozpfG-27" style="edgeStyle=orthogonalEdgeStyle;rounded=0;orthogonalLoop=1;jettySize=auto;html=1;exitX=0.5;exitY=1;exitDx=0;exitDy=0;entryX=0.5;entryY=0;entryDx=0;entryDy=0;endArrow=none;endFill=0;" edge="1" parent="3CAVAxjYpTLYCpoozpfG-28" source="3CAVAxjYpTLYCpoozpfG-1" target="3CAVAxjYpTLYCpoozpfG-4">
          <mxGeometry relative="1" as="geometry" />
        </mxCell>
        <mxCell id="3CAVAxjYpTLYCpoozpfG-1" value="Quản lý thu phí, đóng góp" style="rounded=0;whiteSpace=wrap;html=1;fillColor=#ffe6cc;strokeColor=#d79b00;fontSize=20;" vertex="1" parent="3CAVAxjYpTLYCpoozpfG-28">
          <mxGeometry x="160" width="240" height="80" as="geometry" />
        </mxCell>
        <mxCell id="3CAVAxjYpTLYCpoozpfG-12" style="edgeStyle=orthogonalEdgeStyle;rounded=0;orthogonalLoop=1;jettySize=auto;html=1;exitX=0;exitY=1;exitDx=0;exitDy=0;entryX=0;entryY=0.5;entryDx=0;entryDy=0;endArrow=none;endFill=0;" edge="1" parent="3CAVAxjYpTLYCpoozpfG-28" source="3CAVAxjYpTLYCpoozpfG-2" target="3CAVAxjYpTLYCpoozpfG-5">
          <mxGeometry relative="1" as="geometry">
            <Array as="points">
              <mxPoint y="260" />
            </Array>
          </mxGeometry>
        </mxCell>
        <mxCell id="3CAVAxjYpTLYCpoozpfG-13" style="edgeStyle=orthogonalEdgeStyle;rounded=0;orthogonalLoop=1;jettySize=auto;html=1;exitX=0;exitY=1;exitDx=0;exitDy=0;entryX=0;entryY=0.5;entryDx=0;entryDy=0;endArrow=none;endFill=0;" edge="1" parent="3CAVAxjYpTLYCpoozpfG-28" source="3CAVAxjYpTLYCpoozpfG-2" target="3CAVAxjYpTLYCpoozpfG-10">
          <mxGeometry relative="1" as="geometry">
            <Array as="points">
              <mxPoint y="340" />
            </Array>
          </mxGeometry>
        </mxCell>
        <mxCell id="3CAVAxjYpTLYCpoozpfG-14" style="edgeStyle=orthogonalEdgeStyle;rounded=0;orthogonalLoop=1;jettySize=auto;html=1;exitX=0;exitY=1;exitDx=0;exitDy=0;entryX=0;entryY=0.5;entryDx=0;entryDy=0;endArrow=none;endFill=0;" edge="1" parent="3CAVAxjYpTLYCpoozpfG-28" source="3CAVAxjYpTLYCpoozpfG-2" target="3CAVAxjYpTLYCpoozpfG-11">
          <mxGeometry relative="1" as="geometry">
            <Array as="points">
              <mxPoint y="420" />
            </Array>
          </mxGeometry>
        </mxCell>
        <mxCell id="3CAVAxjYpTLYCpoozpfG-2" value="1, Lập danh sách" style="rounded=0;whiteSpace=wrap;html=1;fillColor=#dae8fc;strokeColor=#6c8ebf;fontSize=16;" vertex="1" parent="3CAVAxjYpTLYCpoozpfG-28">
          <mxGeometry y="120" width="160" height="80" as="geometry" />
        </mxCell>
        <mxCell id="3CAVAxjYpTLYCpoozpfG-21" style="edgeStyle=orthogonalEdgeStyle;rounded=0;orthogonalLoop=1;jettySize=auto;html=1;exitX=0;exitY=1;exitDx=0;exitDy=0;entryX=0;entryY=0.5;entryDx=0;entryDy=0;endArrow=none;endFill=0;" edge="1" parent="3CAVAxjYpTLYCpoozpfG-28" source="3CAVAxjYpTLYCpoozpfG-3" target="3CAVAxjYpTLYCpoozpfG-16">
          <mxGeometry relative="1" as="geometry">
            <Array as="points">
              <mxPoint x="200" y="340" />
            </Array>
          </mxGeometry>
        </mxCell>
        <mxCell id="3CAVAxjYpTLYCpoozpfG-3" value="2, Thống kê, tổng hợp" style="rounded=0;whiteSpace=wrap;html=1;fillColor=#dae8fc;strokeColor=#6c8ebf;fontSize=16;" vertex="1" parent="3CAVAxjYpTLYCpoozpfG-28">
          <mxGeometry x="200" y="120" width="160" height="80" as="geometry" />
        </mxCell>
        <mxCell id="3CAVAxjYpTLYCpoozpfG-22" style="edgeStyle=orthogonalEdgeStyle;rounded=0;orthogonalLoop=1;jettySize=auto;html=1;exitX=0;exitY=1;exitDx=0;exitDy=0;entryX=0;entryY=0.5;entryDx=0;entryDy=0;endArrow=none;endFill=0;" edge="1" parent="3CAVAxjYpTLYCpoozpfG-28" source="3CAVAxjYpTLYCpoozpfG-4" target="3CAVAxjYpTLYCpoozpfG-17">
          <mxGeometry relative="1" as="geometry">
            <Array as="points">
              <mxPoint x="400" y="260" />
            </Array>
          </mxGeometry>
        </mxCell>
        <mxCell id="3CAVAxjYpTLYCpoozpfG-23" style="edgeStyle=orthogonalEdgeStyle;rounded=0;orthogonalLoop=1;jettySize=auto;html=1;exitX=0;exitY=1;exitDx=0;exitDy=0;entryX=0;entryY=0.5;entryDx=0;entryDy=0;endArrow=none;endFill=0;" edge="1" parent="3CAVAxjYpTLYCpoozpfG-28" source="3CAVAxjYpTLYCpoozpfG-4" target="3CAVAxjYpTLYCpoozpfG-18">
          <mxGeometry relative="1" as="geometry">
            <Array as="points">
              <mxPoint x="400" y="340" />
            </Array>
          </mxGeometry>
        </mxCell>
        <mxCell id="3CAVAxjYpTLYCpoozpfG-24" style="edgeStyle=orthogonalEdgeStyle;rounded=0;orthogonalLoop=1;jettySize=auto;html=1;exitX=0;exitY=1;exitDx=0;exitDy=0;entryX=0;entryY=0.5;entryDx=0;entryDy=0;endArrow=none;endFill=0;" edge="1" parent="3CAVAxjYpTLYCpoozpfG-28" source="3CAVAxjYpTLYCpoozpfG-4" target="3CAVAxjYpTLYCpoozpfG-19">
          <mxGeometry relative="1" as="geometry">
            <Array as="points">
              <mxPoint x="400" y="420" />
            </Array>
          </mxGeometry>
        </mxCell>
        <mxCell id="3CAVAxjYpTLYCpoozpfG-4" value="3, Tra cứu thông tin" style="rounded=0;whiteSpace=wrap;html=1;fillColor=#dae8fc;strokeColor=#6c8ebf;fontSize=16;" vertex="1" parent="3CAVAxjYpTLYCpoozpfG-28">
          <mxGeometry x="400" y="120" width="160" height="80" as="geometry" />
        </mxCell>
        <mxCell id="3CAVAxjYpTLYCpoozpfG-5" value="1.1, Danh sách hộ gia đình" style="rounded=0;whiteSpace=wrap;html=1;" vertex="1" parent="3CAVAxjYpTLYCpoozpfG-28">
          <mxGeometry x="10" y="240" width="150" height="40" as="geometry" />
        </mxCell>
        <mxCell id="3CAVAxjYpTLYCpoozpfG-10" value="1.2, Danh sách các khoản thu bắt buộc" style="rounded=0;whiteSpace=wrap;html=1;" vertex="1" parent="3CAVAxjYpTLYCpoozpfG-28">
          <mxGeometry x="10" y="320" width="150" height="40" as="geometry" />
        </mxCell>
        <mxCell id="3CAVAxjYpTLYCpoozpfG-11" value="1.3, Danh sách các khoản thu tự nguyện" style="rounded=0;whiteSpace=wrap;html=1;" vertex="1" parent="3CAVAxjYpTLYCpoozpfG-28">
          <mxGeometry x="10" y="400" width="150" height="40" as="geometry" />
        </mxCell>
        <mxCell id="3CAVAxjYpTLYCpoozpfG-15" value="2.1, Thống kê số tiền đã thu trong mỗi đợt" style="rounded=0;whiteSpace=wrap;html=1;" vertex="1" parent="3CAVAxjYpTLYCpoozpfG-28">
          <mxGeometry x="210" y="240" width="150" height="40" as="geometry" />
        </mxCell>
        <mxCell id="3CAVAxjYpTLYCpoozpfG-16" value="2.1, Thống kê danh sách mỗi hộ nộp tiền" style="rounded=0;whiteSpace=wrap;html=1;" vertex="1" parent="3CAVAxjYpTLYCpoozpfG-28">
          <mxGeometry x="210" y="320" width="150" height="40" as="geometry" />
        </mxCell>
        <mxCell id="3CAVAxjYpTLYCpoozpfG-17" value="3.1, Thông tin số tiền nộp của mỗi hộ" style="rounded=0;whiteSpace=wrap;html=1;" vertex="1" parent="3CAVAxjYpTLYCpoozpfG-28">
          <mxGeometry x="410" y="240" width="150" height="40" as="geometry" />
        </mxCell>
        <mxCell id="3CAVAxjYpTLYCpoozpfG-18" value="3.2, Thông tin các hộ đã nộp, chưa nộp mỗi đợt" style="rounded=0;whiteSpace=wrap;html=1;" vertex="1" parent="3CAVAxjYpTLYCpoozpfG-28">
          <mxGeometry x="410" y="320" width="150" height="40" as="geometry" />
        </mxCell>
        <mxCell id="3CAVAxjYpTLYCpoozpfG-19" value="3.3, Các loại tiền mỗi hộ phải nộp" style="rounded=0;whiteSpace=wrap;html=1;" vertex="1" parent="3CAVAxjYpTLYCpoozpfG-28">
          <mxGeometry x="410" y="400" width="150" height="40" as="geometry" />
        </mxCell>
        <mxCell id="3CAVAxjYpTLYCpoozpfG-20" style="edgeStyle=orthogonalEdgeStyle;rounded=0;orthogonalLoop=1;jettySize=auto;html=1;exitX=0;exitY=1;exitDx=0;exitDy=0;entryX=-0.006;entryY=0.606;entryDx=0;entryDy=0;entryPerimeter=0;endArrow=none;endFill=0;" edge="1" parent="3CAVAxjYpTLYCpoozpfG-28" source="3CAVAxjYpTLYCpoozpfG-3" target="3CAVAxjYpTLYCpoozpfG-15">
          <mxGeometry relative="1" as="geometry">
            <Array as="points">
              <mxPoint x="200" y="264" />
            </Array>
          </mxGeometry>
        </mxCell>
      </root>
    </mxGraphModel>
  </diagram>
</mxfile>
